<?xml version="1.0" encoding="utf-8"?>
<!-- Generator: Adobe Illustrator 24.1.2, SVG Export Plug-In . SVG Version: 6.00 Build 0)  -->
<svg version="1.1" id="Warstwa_3" xmlns="http://www.w3.org/2000/svg" xmlns:xlink="http://www.w3.org/1999/xlink" x="0px" y="0px"
	 viewBox="0 0 430 430" style="enable-background:new 0 0 430 430;" xml:space="preserve">
<style type="text/css">
	.st0{fill:#08a88a;}
	.st1{fill:#121331;}
	.st2{fill:none;stroke:#08a88a;stroke-width:12;stroke-linecap:round;stroke-linejoin:round;stroke-miterlimit:10;}
	.st3{fill:none;stroke:#121331;stroke-width:12;stroke-linecap:round;stroke-linejoin:round;stroke-miterlimit:10;}
	.st4{fill:#08a88a;}
	.st5{fill:#FFFFFF;stroke:#08a88a;stroke-width:12;stroke-linecap:round;stroke-linejoin:round;stroke-miterlimit:10;}
</style>
<g>
	<g>
		<path class="st0" d="M179.99,58.06c-3.31,0-6-2.69-6-6v-15.4c0-1.44-1.22-2.67-2.67-2.67h-48.86c-1.44,0-2.67,1.22-2.67,2.67v15.4
			c0,3.31-2.69,6-6,6s-6-2.69-6-6v-15.4c0-8.09,6.58-14.67,14.67-14.67h48.86c8.09,0,14.67,6.58,14.67,14.67v15.4
			C185.99,55.38,183.3,58.06,179.99,58.06z"/>
		<path class="st0" d="M169.03,160.84h-44.28c-3.31,0-6-2.69-6-6v-21.42c0-3.31,2.69-6,6-6s6,2.69,6,6v15.42h32.28v-15.42
			c0-3.31,2.69-6,6-6s6,2.69,6,6v21.42C175.03,158.15,172.35,160.84,169.03,160.84z"/>
		<path class="st1" d="M203.83,46.06H89.95c-22.61,0-41,18.39-41,41v71.53c0,22.61,18.39,41,41,41h113.89c22.61,0,41-18.39,41-41
			V87.06C244.83,64.46,226.44,46.06,203.83,46.06z M89.95,58.06h113.89c15.99,0,29,13.01,29,29v40.35H60.95V87.06
			C60.95,71.07,73.96,58.06,89.95,58.06z M203.83,187.59H89.95c-15.99,0-29-13.01-29-29v-19.17h171.89v19.17
			C232.83,174.58,219.82,187.59,203.83,187.59z"/>
	</g>
	<g>
		<path class="st0" d="M315.87,266.48c-3.31,0-6-2.69-6-6v-15.4c0-1.44-1.22-2.67-2.67-2.67h-48.86c-1.44,0-2.66,1.22-2.66,2.67
			v15.4c0,3.31-2.69,6-6,6s-6-2.69-6-6v-15.4c0-8.09,6.58-14.67,14.66-14.67h48.86c8.09,0,14.67,6.58,14.67,14.67v15.4
			C321.87,263.79,319.18,266.48,315.87,266.48z"/>
		<path class="st0" d="M304.92,369.25h-44.29c-3.31,0-6-2.69-6-6v-21.42c0-3.31,2.69-6,6-6s6,2.69,6,6v15.42h32.29v-15.42
			c0-3.31,2.69-6,6-6s6,2.69,6,6v21.42C310.92,366.56,308.23,369.25,304.92,369.25z"/>
		<path class="st1" d="M339.72,254.48H225.83c-22.61,0-41,18.39-41,41V367c0,22.61,18.39,41,41,41h113.89c22.61,0,41-18.39,41-41
			v-71.53C380.72,272.87,362.33,254.48,339.72,254.48z M225.83,266.48h113.89c15.99,0,29,13.01,29,29v40.35H196.83v-40.35
			C196.83,279.49,209.84,266.48,225.83,266.48z M339.72,396H225.83c-15.99,0-29-13.01-29-29v-19.17h171.89V367
			C368.72,382.99,355.71,396,339.72,396z"/>
	</g>
	<path class="st0" d="M150.83,353.09c0.04-0.06,0.08-0.11,0.12-0.17c0.08-0.11,0.16-0.22,0.23-0.34c0.39-0.66,0.63-1.37,0.75-2.08
		c0.01-0.04,0.01-0.07,0.02-0.11c0.02-0.13,0.03-0.25,0.04-0.38c0.01-0.08,0.02-0.15,0.02-0.23c0-0.09,0-0.18,0-0.27
		c0-0.11,0-0.22,0-0.34c0-0.04-0.01-0.08-0.01-0.13c-0.03-0.34-0.08-0.68-0.16-1.03l-6.1-23.78c-0.82-3.21-4.09-5.14-7.3-4.32
		c-3.21,0.82-5.14,4.09-4.32,7.3l2.51,9.8l-9.29-5.48c-41-24.17-66.39-68.75-66.26-116.34c0.01-3.31-2.67-6.01-5.98-6.02
		c-0.01,0-0.01,0-0.02,0c-3.31,0-5.99,2.68-6,5.98c-0.14,51.84,27.51,100.39,72.17,126.71l9.2,5.42l-9.7,2.49
		c-3.21,0.82-5.14,4.09-4.32,7.3c0.7,2.71,3.13,4.51,5.81,4.51c0.49,0,0.99-0.06,1.49-0.19l23.58-6.04
		c1.19-0.26,2.29-0.89,3.14-1.82c0.03-0.03,0.06-0.06,0.09-0.1C150.63,353.34,150.73,353.22,150.83,353.09z"/>
	<path class="st0" d="M308.89,87.64l-9.2-5.42l9.7-2.49c3.21-0.82,5.14-4.09,4.32-7.3c-0.82-3.21-4.09-5.14-7.3-4.32l-23.49,6.02
		c-1.6,0.33-3.07,1.3-3.97,2.83c-0.39,0.66-0.63,1.37-0.75,2.08c-0.01,0.04-0.01,0.07-0.02,0.11c-0.02,0.13-0.03,0.25-0.04,0.38
		c-0.01,0.08-0.02,0.15-0.02,0.23c0,0.09,0,0.18,0,0.27c0,0.11,0,0.22,0,0.34c0,0.04,0.01,0.08,0.01,0.13
		c0.03,0.34,0.08,0.68,0.16,1.03l6.1,23.78c0.7,2.71,3.13,4.51,5.81,4.51c0.49,0,0.99-0.06,1.49-0.19c3.21-0.82,5.14-4.09,4.32-7.3
		l-2.51-9.8l9.29,5.48c41,24.17,66.39,68.75,66.26,116.34c-0.01,3.31,2.67,6.01,5.98,6.02c0.01,0,0.01,0,0.02,0
		c3.31,0,5.99-2.68,6-5.98C381.2,162.51,353.55,113.96,308.89,87.64z"/>
</g>
</svg>
